<svg xmlns="http://www.w3.org/2000/svg" width="114" height="114" viewBox="0 0 114 114">
  <g id="Group_3974" data-name="Group 3974" transform="translate(-865 -243.562)">
    <circle id="Ellipse_238" data-name="Ellipse 238" cx="57" cy="57" r="57" transform="translate(865 243.562)" fill="#017c33"/>
    <g id="Group_3973" data-name="Group 3973" transform="translate(879.075 276.764)">
      <path id="Path_5437" data-name="Path 5437" d="M1064.67,514.546s.281-.646-.983-3.147c0,0-.731-1.433-1.433-.478-.337.421,0,2.332.056,2.951l1.293,13.713a14.753,14.753,0,0,1-.2,4.075c-.225-1.939-2.585-4.44-5.451-7-.225-3.484-.562-8.093-.787-10.425l.056-.056.759.422a5.115,5.115,0,0,0-.056-.984c2.585-2.051,2.585-3.316,2.585-3.316a19.618,19.618,0,0,0-2.95,1.939,10.178,10.178,0,0,0-.618-1.236s-.871-1.04-1.293.45c0,0,.056.646.169,2.079-1.546,1.208-2.838,2.276-2.838,2.276-.422.365-.955.815-1.546,1.321-.112-1.012-.225-1.967-.337-2.838l.815.225s.393-1.77-1.433-3.934c0,0-.843-.309-.9,1.152,0,0,.056,2.248.337,5.7a17.162,17.162,0,0,1-1.208-1.405l1.068-.141a10.419,10.419,0,0,0-2.445-2.248c-1.826-1.124-2.754-.309-1.433,1.574a6.8,6.8,0,0,0,.618.787c.927.984,1.855,1.967,2.81,2.894-1.349,1.152-2.81,2.388-4.159,3.541-.169-1.6-.337-2.979-.421-3.541-.169-1.6-.365-3.316-.506-4.749l.815.45a6.369,6.369,0,0,0-1.04-3.6s-.871-1.04-1.293.45a39.148,39.148,0,0,0,.45,5.142c.225,2.248.393,4.665.59,7.025-2.192,1.855-3.85,3.26-3.85,3.26-2.389-1.855-4.215-3.428-5.648-4.721-.2-3.007-.45-6.238-.646-8.009l.843.45a6.369,6.369,0,0,0-1.04-3.6s-.871-1.04-1.293.45c0,0,.113,1.574.45,5.142l.225,4.187a22.908,22.908,0,0,1-2.838-3.231l.983-.112c-2.135-3.344-3.85-2.7-3.85-2.7-.7,1.152,2.164,4.384,2.164,4.384,1.208,1.349,2.473,2.641,3.681,3.794l.337,5.676s.365,5.536.534,6.66c0,0,1.292-.478.927-6.126,0,0-.141-2.108-.309-4.805,2.36,2.22,4.215,3.681,4.215,3.681-3.147,3.091-2.389,5.114-2.389,5.114a1.478,1.478,0,0,0,.618.787c-.141.253-.169.9.141,2.445,0,0,.618,3.147,3.484,2.557,0,0,1.18-.365,1.714-2.585,0,0,.562-2.81,2.388-3.2,0,0,.787-.281,1.04.787,0,0,.731,3.063,3.344,2.922a3.673,3.673,0,0,0,3.794-3.822s-.365-5.873-.9-11.69l.2.2c1.461,1.265,3.035,2.613,4.524,3.962l.2,3.119s.365,5.536.534,6.66c0,0,1.293-.478.927-6.126,0,0-.056-.9-.141-2.276,2.22,2.136,4.074,4.243,4.665,6.154,0,0-1.714,2.894-8.177,5.058,0,0,7.812.478,9.807-5.873a37.138,37.138,0,0,0,.028-10.313l-.815-7.84Zm-24.953,14.528s2.22,1.517.674,2.332c0,0-1.8,1.152-2.866.618,0,0-.506-.59,2.192-2.951Zm-60.977,7.643s1.911-.534,4.327-1.377c-1.826-4.693,2.164-8.149,2.164-8.149-1.658,1.827-1.461,5.732-1.461,5.732a3.8,3.8,0,0,0,.562,1.967,33.416,33.416,0,0,0,6.885-3.372s3.878-1.911,3.765-4.018a8.227,8.227,0,0,1-3.175.562s-2.7-.141-1.686-3.063c0,0,1.546-2.979,3.962-1.321a3.852,3.852,0,0,1,1.321,1.855s2.3-1.546,3.175-2.192a2.01,2.01,0,0,0,1.63,2.36h.281c-.112-1.208-.253-2.557-.393-3.934a.217.217,0,0,0-.084-.028l.056-.056c-.449-4.187-1.04-8.458-1.04-8.458-.674-2.136.646-2.585.646-2.585.337-.2.731.618.731.618,1.321,2.641.984,3.541.984,3.541a1.637,1.637,0,0,0-.787-.562c.309,2.22.562,4.524.787,6.575,1.573-.955,3.793-2.079,3.793-2.079l.9-.056c-.028.281-3.541,2.136-4.636,2.7.169,1.461.309,2.754.393,3.709a2.712,2.712,0,0,0,.787-1.321s.506-1.124,1.377-1.124c0,0-.449,1.855,1.1,1.911,0,0,1.855.141,1.63-2.332,0,0,.225-1.04.7.2,0,0,1.012,3.316-2.445,3.878a1.8,1.8,0,0,1-1.855-1.208,2.97,2.97,0,0,1-1.124,1.742v.028c.365,5.564-5.479,8.683-5.479,8.683-9.976,4.665-12.645,1.405-12.645,1.405-.112-.169-.225-.365-.337-.534a13.312,13.312,0,0,1-4.805.309ZM1000.6,527.3a3.1,3.1,0,0,1-.871-.028s-1.63-.506-1.883-1.6a8.053,8.053,0,0,1-1.658,1.236c.141,1.124.056,3.822-3.541,5.564a33.793,33.793,0,0,1-7.137,3.4,6.234,6.234,0,0,0,3.541.141c10.734-1.63,11.577-7.194,11.577-7.194a14.594,14.594,0,0,0-.028-1.517Zm-6.8-1.377s-1.489-1.658-2.613-.281a1.945,1.945,0,0,0,2.613.281Zm16.3-.759a1.068,1.068,0,0,1,.562.112s0-.646-1.6-2.3c0,0-.478-.618-.731.365,0,0-.478,1.012.59,3.007,0,0,1.377,2.417.927,3.147a25.538,25.538,0,0,1-4.58,3.541,6.761,6.761,0,0,1,.843-2.754,3.865,3.865,0,0,0-1.714,3.316,61.653,61.653,0,0,1-10.116,4.833,14.369,14.369,0,0,0,7.418-1.4,22.889,22.889,0,0,0,2.838-1.433.218.218,0,0,1,.028.084c.393,3.484,5.03.618,5.03.618a13.62,13.62,0,0,0,6.042-4.946,6.441,6.441,0,0,0,4.946,6.407c2.417.9,2.979-.337,2.979-.337.394-1.433-.9-1.4-.9-1.4a8.778,8.778,0,0,1-3.035-.731c1.04-2.276,10.032-3.456,10.032-3.456,3.4-.309,3.709-2.051,3.344-2.023s-12.954-.056-12.954-.056a14.908,14.908,0,0,1,5.142-2.641,2.373,2.373,0,0,1,.478,1.321c.646-.365.534-1.489.534-1.489a2.536,2.536,0,0,0,2.417-.843c1.124-1.124-1.8-2.36-1.8-2.36-2.276-1.124-3.344.506-3.344.506-.871.871.674,2.051.674,2.051-8.29,2.361-6.856,4.889-6.856,4.889l7.756.169c-5.873,1.265-6.042,3.428-6.042,3.428-2.22.056-2.81-5.423-2.81-5.423a13.11,13.11,0,0,0-3.288-7.756c-.927.7-.309,2.388-.309,2.388a44.857,44.857,0,0,1,2.726,6.294,39.745,39.745,0,0,1-6.042,4.384c-2.136,1.461-3.569.478-3.569.478a.7.7,0,0,1-.112-.2,22.072,22.072,0,0,0,5.592-4.974s.7-1.236-.534-3.316c0,0-.815-1.6-.562-1.489Zm-5.114-9.526a7.387,7.387,0,0,0,2.979-2.754c-2.3-1.349.365-3.091.9-.393a1.223,1.223,0,0,1,.365,1.714s-.365.618-.59,1.1c-.281.731.253.871.646.141.141,1.686-2.164,1.293-.843-.983.309-.478.759-1.433.028-1.293a5.817,5.817,0,0,1-3.484,2.473Zm3.372-3.4c-1.208-.393-.422-1.04,0,0Zm-11.324.253a3.275,3.275,0,0,1,.927.225s-.056-.674-1.321-1.6-1.012.393-1.012.393a11.466,11.466,0,0,0,.927,3.063s2.192,3.653.59,4.271c0,0-2.529,1.433-3.99-2.051a15.98,15.98,0,0,1-.674-3.934,3.1,3.1,0,0,0-.843-2.164,1.62,1.62,0,0,0-.815,1.8,4.381,4.381,0,0,1,.871,2.754s.141,3.035-1.854,4.159a4.078,4.078,0,0,1-.984.365c-.028-.393-.056-.674-.084-.871-.2-1.6-.365-3.316-.534-4.749l.843.45a6.369,6.369,0,0,0-1.04-3.6s-.871-1.04-1.292.45a39.177,39.177,0,0,0,.45,5.142c.084.984.169,2.108.253,3.316h-.028c-3.6-.421-2.22-5.086-1.321-7.166,0,0-1.321-.365-2.276,2.389,0,0-1.152,2.726-1.686,4.187,0,0-.7,1.742-2.136.927,0,0-1.686-1.04-.956-4.215,0,0-1.545,1.405-.112,4.889a2.194,2.194,0,0,0,3.484-.759,12.863,12.863,0,0,0,1.1-3.288s.731-2.192,1.265-2.051c0,0-1.433,3.035.028,5.367a4.088,4.088,0,0,0,2.726,1.265c.253,3.765.45,7.98.843,10.791,1.461-.225.984-7.194.618-11.043a5.168,5.168,0,0,0,3.035-3.709s1.068,3.709,4.356,3.063c0,0,3.091-.534,2.107-4.215a23.35,23.35,0,0,1-1.461-3.85Zm28.016.2a3.28,3.28,0,0,1,.927.225s-.028-.7-1.321-1.63c-1.265-.9-1.012.421-1.012.421a11.468,11.468,0,0,0,.927,3.063s2.192,3.625.618,4.243c0,0-2.557,1.461-3.99-2.023a16.377,16.377,0,0,1-.674-3.962,3.208,3.208,0,0,0-.843-2.136,1.591,1.591,0,0,0-.843,1.8,4.512,4.512,0,0,1,.9,2.754s.112,3.035-1.883,4.159a4.626,4.626,0,0,1-2.417.506c-3.6-.45-2.22-5.114-1.321-7.194,0,0-1.293-.337-2.276,2.388,0,0-1.152,2.754-1.686,4.215,0,0-.7,1.714-2.135.927,0,0-1.686-1.04-.955-4.215,0,0-1.546,1.377-.112,4.889a2.24,2.24,0,0,0,3.512-.759,12.209,12.209,0,0,0,1.068-3.288s.731-2.192,1.293-2.051c0,0-1.461,3.035.028,5.367a3.808,3.808,0,0,0,4.721.731,5.338,5.338,0,0,0,2.473-3.456s1.068,3.709,4.384,3.063c0,0,3.063-.506,2.079-4.187a23.348,23.348,0,0,1-1.461-3.85Zm-10.538,22.087s-.141-.984.815-.534c.9.422.281,1.1-.562,1.18a1.007,1.007,0,0,0-.59.225c-.337.365.984,1.293.253,2.417a3.685,3.685,0,0,0-.731-1.911.594.594,0,0,1-.112-.674c.168-.393.787-.309.927-.7Zm10.06-10.172a1.333,1.333,0,0,1,1.124-.112c.983.337,1.546.731.281,1.293a1.171,1.171,0,0,1-1.349-.253s-.674-.562-.056-.927Zm1.686-1.63s1.8-.562,2-1.8c0,0-.7.225-.815-.112,0,0,.337-1.208,1.236-.731,0,0,.618.365-.112,1.517a2.862,2.862,0,0,1-2.3,1.124Zm5.03,3.794s-.731-1.124.618-1.321a2.937,2.937,0,0,0,0,1.04l.253.112-.309.337a2.707,2.707,0,0,1-2.81,1.574s2.136-.337,2.248-1.742Zm-4.44,7.98a1.392,1.392,0,0,1,1.63-.59c.393.112.815.225.534.59-.422.506-1.1.562-1.63,1.04-.759.646-.169.815.534.731a9.68,9.68,0,0,0,2.248-1.04,3.128,3.128,0,0,1-2.641,1.742,1.635,1.635,0,0,1-.534-.084c-.843-.225-1.152-.955-.281-1.489.365-.225.815-.309.759-.534-.084-.337-1.124.45-.618-.365Zm5.479-.7a1.63,1.63,0,0,0-.9,1.826s.309.843.955.421c0,0,.337-.365-.169-.731,0,0-.787-.478.112-1.517Zm-52.182-22.986c-1.293.478-2.782,2.613-1.433,3.344a1.391,1.391,0,0,0,1.911-1.1s-1.04.45-1.349.14c0,0-.562-.646.871-2.388Zm.2,18.321c-1.265.478-2.782,2.613-1.405,3.344a1.391,1.391,0,0,0,1.911-1.068s-1.068.45-1.377.14c0,0-.534-.674.871-2.417Zm48.08-18.827c-1.293.478-2.782,2.613-1.433,3.344a1.425,1.425,0,0,0,1.939-1.068s-1.068.45-1.377.141c0,0-.562-.674.871-2.417Zm8.093,5.7c-1.068-.028-1.489-.731-.506-1.293a36.209,36.209,0,0,1,5.367-1.939c.084.478-1.911,1.124-2.417,1.321l-2.417.927c-.562.225-.478.422-.028.984Zm-43.021-3.513a.794.794,0,0,0,.281,1.489.754.754,0,0,0,.534-.309,1.018,1.018,0,0,0,.59.309.488.488,0,0,0,.45-.674s-.337-.731-.225-.955c0,0-.393.028-.253.59,0,0,.225.45.084.534,0,0-.309.112-.562-.309a1.09,1.09,0,0,1-.084-.7s-.393-.084-.309.73c0,0,.028.2.028.281-.646.365-.787-.478-.534-.983Zm21.159,1.77c-1.068.478-.955,2.529.478,2.557a1.3,1.3,0,0,0,.9-.534,1.583,1.583,0,0,0,1.04.506.8.8,0,0,0,.731-1.124s-.534-1.236-.365-1.658c0,0-.646.028-.422,1.012,0,0,.365.787.169.927,0,0-.562.2-1.012-.534a2.041,2.041,0,0,1-.141-1.208s-.674-.141-.534,1.265c0,0,.056.365.084.506-1.152.59-1.349-.815-.927-1.714Zm2.754,8.009c-1.1.45-.983,2.5.45,2.529a1.176,1.176,0,0,0,.9-.534,1.7,1.7,0,0,0,1.04.534.809.809,0,0,0,.759-1.124s-.562-1.265-.393-1.686c0,0-.646.056-.393,1.012,0,0,.365.815.14.927,0,0-.534.2-.983-.506a2.274,2.274,0,0,1-.169-1.236s-.674-.112-.534,1.265c0,0,.056.365.084.506-1.152.618-1.349-.815-.9-1.686Zm20.373-4.721c-1.1.478-.983,2.529.45,2.557a1.28,1.28,0,0,0,.9-.562,1.56,1.56,0,0,0,1.04.534.809.809,0,0,0,.759-1.124s-.562-1.236-.393-1.658c0,0-.646.028-.393.983,0,0,.365.815.141.927,0,0-.534.225-.983-.506a2.212,2.212,0,0,1-.169-1.208s-.674-.14-.534,1.236c0,0,.056.365.084.506-1.152.618-1.349-.787-.9-1.686Zm-32.708,12.139a3.248,3.248,0,0,0-1.321-1.827s-.562-.421-.169-.7c0,0,.506-.393,1.489.955.14-.871.871-1.911,1.742-1.1a.512.512,0,0,1,.056.787c-.646.112-.506-.59-.955-.309-.393.281-.759,1.855-.843,2.192Zm32.877-16.158a3.247,3.247,0,0,0-1.321-1.827s-.562-.422-.169-.731c0,0,.506-.393,1.489.983.141-.9.871-1.911,1.742-1.1a.512.512,0,0,1,.056.787c-.646.112-.506-.59-.955-.309-.393.281-.759,1.855-.843,2.192Zm18.012,1.461c.056.422.084.871.141,1.349l.393,6.744c-1.658-1.433-3.344-2.866-4.833-4.215l-.028-.253Zm-5.789,4.833c.2,2.079.45,4.384.815,6.828,0,0,.534,4.552.7,6.66,0,0-.337,1.545-2.726,1.489,0,0-1.827.056-2.754-2.922a1.434,1.434,0,0,0-2.023-.534s-1.461.59-2.529,3.175c0,0-1.18,3.6-2.585,2.782a5.733,5.733,0,0,1-1.826-3.484c1.574.45,4.215-1.349,4.215-1.349,2.388-2.557-.478-4.833-.478-4.833l2.922-2.529c.141,1.545.309,3.063.506,4.5,1.012-.169,1.1-2.923.9-5.7l1.264-1.068Zm-71.684,6.1a8.553,8.553,0,0,0,3.737-2.332s-.731-1.04-.45-1.77c.365-.871,1.6.112,1.967.506,0,0,.843.815.45,1.4-.253.337-.871.309-1.236.281,0,0-2.5,2.866-4.468,1.911ZM983.6,523a.378.378,0,1,1-.281.365A.346.346,0,0,1,983.6,523Zm-1.04-.506c.169,0,.281.169.281.365s-.112.337-.281.337c-.14,0-.253-.141-.253-.337s.112-.365.253-.365Zm61.9,8.121a8.553,8.553,0,0,0,3.737-2.332s-.731-1.068-.449-1.77c.365-.9,1.63.084,2,.478,0,0,.815.843.421,1.405-.225.337-.871.309-1.208.281,0,0-2.5,2.894-4.5,1.939Zm5.114-3.175c.169,0,.281.14.281.337s-.112.365-.281.365c-.141,0-.253-.169-.253-.365s.112-.337.253-.337Zm-1.012-.534c.14,0,.253.169.253.365s-.113.365-.253.365c-.169,0-.281-.169-.281-.365s.112-.365.281-.365Zm-44.679-12.139a2.193,2.193,0,0,0-.955-1.77s-1.208-.281-.759-.955c0,0,.646-.506,1.489.871a2.593,2.593,0,0,1,.225,1.855Zm12.336-1.04a2.163,2.163,0,0,0-.955-1.77s-1.208-.309-.759-.956c0,0,.646-.534,1.489.843a2.646,2.646,0,0,1,.225,1.883Zm-20.766,4.187a2.193,2.193,0,0,0-.955-1.77s-1.208-.281-.731-.955c0,0,.618-.506,1.461.843a2.694,2.694,0,0,1,.225,1.883Zm49.906,20.007a2.125,2.125,0,0,0-.955-1.742s-1.208-.309-.759-.983c0,0,.646-.506,1.489.871a2.593,2.593,0,0,1,.225,1.855Zm-59.854-12.814-.871.056a47.573,47.573,0,0,0-5.2,2.979,1.344,1.344,0,0,0,1.124-.169s4.917-2.557,4.946-2.866Zm57.718-3.934-.871.056a42.167,42.167,0,0,0-5.171,3.007,1.439,1.439,0,0,0,1.124-.2s4.889-2.529,4.918-2.866Zm12.926,14.331-.9-.028a43.87,43.87,0,0,0-5.479,2.389,1.437,1.437,0,0,0,1.152-.056s5.142-2,5.227-2.3Zm4.328-14.612a2.125,2.125,0,0,0-1.265-1.855s-1.011-.45-.562-.955c0,0,.759-.674,1.433.731a2.711,2.711,0,0,1,.393,2.079Z" transform="translate(-978.179 -510.303)" fill="#fff" fill-rule="evenodd"/>
      <path id="Path_5438" data-name="Path 5438" d="M1119.479,860.386l.674-.674a.272.272,0,0,1,.394,0l.674.674a.272.272,0,0,1,0,.393l-.59.59v.759h7.278c1.6,0,2.866.562,2.866,2.079,0,1.6-.646,2.108-1.405,2.108a1.466,1.466,0,0,1-.955-.394h-3.063l-.618.59a.24.24,0,0,1-.365,0l-.59-.59h-2.641l-.59.59a.272.272,0,0,1-.394,0l-.674-.674a.272.272,0,0,1,0-.393l.59-.59v-.731h-36.418c-1.883,0-16.916.422-17.675-1.8-.084-.2.281-.2.843-.2h53.25v-.759l-.59-.59a.272.272,0,0,1,0-.393Zm1.152,3.737v.731l.506.506h2.641l.59-.59a.24.24,0,0,1,.365,0l.618.59h2.7a1.589,1.589,0,0,1-.084-.506c0-.815-.028-.731-.618-.731Z" transform="translate(-1055.047 -816.185)" fill="#fff" fill-rule="evenodd"/>
    </g>
  </g>
</svg>
