<svg xmlns="http://www.w3.org/2000/svg" width="241.528" height="37.392" viewBox="0 0 241.528 37.392">
  <path id="Path_10020" data-name="Path 10020" d="M-107.654-23.636h-2.7v-3.23h2.7Zm-4.978,0h-2.7v-3.23h2.7ZM-99.6,0h-1.748c-3.762,0-6.156-1.862-7.258-5.548-1.14,1.938-3.078,2.926-5.814,2.926-3.876,0-6.764-3.99-6.764-9.044,0-5.4,2.888-9.2,7.22-9.2h8.056v12.2c0,3.8,1.786,6.042,4.864,6.042H-99.6Zm-9.044-12.16v-6.726h-4.826c-3,0-5.054,3.078-5.054,7.068,0,3.876,2.014,7.106,4.978,7.106C-110.352-4.712-108.718-7.182-108.642-12.16ZM-92.15,0h-8.018V-2.66h8.018Zm7.524,0h-8.018V-2.66h8.018ZM-77.1,0H-85.12V-2.66H-77.1ZM-61.94-19.988h-2.7v-3.23h2.7ZM-50.312,0h-7.372a6.717,6.717,0,0,1-5.662-2.964A12.726,12.726,0,0,1-71.9,0h-5.966V-2.66h5.89c2.85,0,4.218-.494,6.878-2.394a16.952,16.952,0,0,0-8.132-6.688v-3a17.112,17.112,0,0,1,9.462-3.04,15.521,15.521,0,0,1,9.994,3.648A36.525,36.525,0,0,1-56.2-9.956a24.724,24.724,0,0,1-5.016,5.168C-59.66-2.926-59.28-2.66-55.442-2.66h5.13Zm-6.536-13.3c-4.256-2.09-4.37-2.09-6.764-2.09a15.151,15.151,0,0,0-7.258,2.166c3.306,1.254,5.092,2.736,7.828,6.46A19.411,19.411,0,0,0-56.848-13.3Zm11.742-17.328a2,2,0,0,1,.57,1.368c0,1.406-2.014,3.914-5.472,3.914-.608,0-.418-.228-.608-.608a2.008,2.008,0,0,0,.494.038,4.536,4.536,0,0,0,3.23-1.254,3,3,0,0,1-1.178-2.242,1.665,1.665,0,0,1,1.6-1.748A1.861,1.861,0,0,1-45.106-30.628Zm-1.368,3.116a2.409,2.409,0,0,0,1.33-1.862A1.3,1.3,0,0,0-46.36-30.7a1.317,1.317,0,0,0-1.178,1.292A2.051,2.051,0,0,0-46.474-27.512ZM-37.886,0H-51V-2.622h2.432c1.634,0,2.7-.532,3.23-1.558a8.5,8.5,0,0,0,.57-3.686v-16.72h2.66v17.9a9.436,9.436,0,0,1-.722,4.028h4.94ZM-30.4,0h-8.018V-2.66H-30.4Zm7.524,0h-8.018V-2.66h8.018Zm8.284-24.586v17.9C-14.592-2.242-16.454,0-20.178,0h-3.306V-2.622h2.432c1.634,0,2.7-.532,3.23-1.6a8.187,8.187,0,0,0,.57-3.648v-16.72ZM-6.84,0H-9.5V-24.586h2.66ZM11.172-17.252V-3.23c0,6.194-2.394,9.158-7.98,9.462V3.686c3.534,0,5.32-1.938,5.32-6.422V-17.252ZM24.624,0h-3a4.705,4.705,0,0,1-3.458-1.444,6.071,6.071,0,0,1-1.634-4.6V-24.586h2.736V-7.638a7.148,7.148,0,0,0,.76,3.762A2.912,2.912,0,0,0,22.192-2.7a23.774,23.774,0,0,0,2.432.038ZM32.11,0H24.092V-2.66H32.11Zm7.524,0H31.616V-2.66h8.018Zm12.5,0H39.026V-2.622h2.432c1.634,0,2.7-.532,3.23-1.558a8.5,8.5,0,0,0,.57-3.686v-9.386h2.66V-6.688A9.436,9.436,0,0,1,47.2-2.66h4.94Zm-4.18,5.814h-2.7V2.584h2.7Zm-4.978,0h-2.7V2.584h2.7Zm17.366-25.8h-2.7v-3.23h2.7Zm-4.978,0h-2.7v-3.23h2.7ZM64.6,0H51.49V-2.622h2.432c1.634,0,2.7-.532,3.23-1.558a8.5,8.5,0,0,0,.57-3.686v-9.386h2.66V-6.688A9.436,9.436,0,0,1,59.66-2.66H64.6Zm7.486,0H64.068V-2.66h8.018ZM79.61,0H71.592V-2.66H79.61Zm7.524,0H79.116V-2.66h8.018Zm14.174-19.988h-2.7v-3.23h2.7Zm11.286,16.15V0H86.26V-2.66h23.1c.038-.494.076-.95.076-1.368,0-6.422-3.382-10.108-9.348-10.108a7.764,7.764,0,0,0-7.144,3.762c-.38-.418-1.14-1.178-2.318-2.356,2.166-2.7,5.282-4.028,9.424-4.028C107.616-16.758,112.594-11.742,112.594-3.838ZM120.346,0h-2.66V-24.586h2.66Z" transform="translate(121.182 31.16)" fill="#008f9f"/>
</svg>
